<?xml version="1.0" encoding="utf-8"?><svg xmlns="http://www.w3.org/2000/svg" xmlns:xlink="http://www.w3.org/1999/xlink"><symbol viewBox="0 0 480 480" id="agreement" xmlns="http://www.w3.org/2000/svg"><path d="M360 4H8a8 8 0 0 0-8 8v456a8 8 0 0 0 8 8h352a8 8 0 0 0 8-8V12a8 8 0 0 0-8-8zm-8 456H16V20h336v440z"/><path d="M224 84h-80a8 8 0 0 0 0 16h80a8 8 0 0 0 0-16zm-104 96H72a8 8 0 0 0 0 16h48a8 8 0 0 0 0-16zm208 0H152a8 8 0 0 0 0 16h176a8 8 0 0 0 0-16zm0 32H40a8 8 0 0 0 0 16h288a8 8 0 0 0 0-16zm-80 32H40a8 8 0 0 0 0 16h208a8 8 0 0 0 0-16zm80 0h-48a8 8 0 0 0 0 16h48a8 8 0 0 0 0-16zm0 32H184a8 8 0 0 0 0 16h144a8 8 0 0 0 0-16zm-176 0H40a8 8 0 0 0 0 16h112a8 8 0 0 0 0-16zm176 32h-32a8 8 0 0 0 0 16h32a8 8 0 0 0 0-16zm-248 0H40a8 8 0 0 0 0 16h40a8 8 0 0 0 0-16zm184 0H112a8 8 0 0 0 0 16h152a8 8 0 0 0 0-16zm56 96H208a8 8 0 0 0 0 16h112a8 8 0 0 0 0-16zM256 52H112a8 8 0 0 0 0 16h144a8 8 0 0 0 0-16zm216 24h-24c0-17.673-14.327-32-32-32-17.673 0-32 14.327-32 32v288a84.662 84.662 0 0 0 24.976 60.288l1.368 1.368a8 8 0 0 0 11.312 0l1.368-1.368A84.662 84.662 0 0 0 448 364V92h16v72h16V84a8 8 0 0 0-8-8zm-56 332.288A68.602 68.602 0 0 1 400.456 372h31.088A68.602 68.602 0 0 1 416 408.288zM432 356h-32V92h32v264zM400 76c0-8.837 7.163-16 16-16s16 7.163 16 16h-32zm-72 56h-96a8 8 0 0 0 0 16h96a8 8 0 0 0 0-16zM216 340H40a8 8 0 0 0 0 16h176a8 8 0 0 0 0-16z"/></symbol><symbol viewBox="0 0 470.002 470.002" id="compass" xmlns="http://www.w3.org/2000/svg"><path d="M397.483 421.418c3.833-9.255 3.833-19.447-.001-28.701L385 362.583c.236-.498.462-1.004.674-1.517 3.322-8.021 3.321-16.854-.001-24.874a32.397 32.397 0 0 0-19.135-18.182l-34.385-83.012h23.899c1.031 2.911 3.8 5 7.064 5 4.143 0 7.5-3.357 7.5-7.5v-10c0-4.143-3.357-7.5-7.5-7.5-3.265 0-6.034 2.089-7.064 5H325.94L273.707 93.896l2.18-20.691c.644-6.109-1.195-11.913-5.18-16.339-3.984-4.428-9.561-6.866-15.706-6.866h-12.5V7.5c0-4.143-3.357-7.5-7.5-7.5s-7.5 3.357-7.5 7.5V50h-12.5c-6.145 0-11.723 2.438-15.707 6.865s-5.823 10.229-5.18 16.339l2.18 20.691-52.234 126.104h-30.112c-1.031-2.911-3.8-5-7.064-5a7.499 7.499 0 0 0-7.5 7.5v10c0 4.143 3.357 7.5 7.5 7.5 3.265 0 6.034-2.089 7.064-5h23.899l-34.385 83.012a32.4 32.4 0 0 0-19.135 18.182c-3.654 8.822-3.119 18.352.682 26.368L72.52 392.717c-3.834 9.254-3.834 19.446-.001 28.701 2.859 6.899 7.594 12.659 13.653 16.733l-8.897 21.479a7.498 7.498 0 0 0 4.059 9.799 7.45 7.45 0 0 0 2.867.573 7.504 7.504 0 0 0 6.932-4.632l35.974-86.85a32.407 32.407 0 0 0 17.274-17.454c3.379-8.157 3.171-16.918.117-24.529l42.058-101.538h40.946v12.5c0 4.143 3.357 7.5 7.5 7.5s7.5-3.357 7.5-7.5v-12.5h40.946l12.693 30.645a7.5 7.5 0 1 0 13.858-5.74l-14.611-35.274-.035-.085-28.23-68.153 3.293-31.25 43.583 105.218.042.102 35.709 86.209a32.47 32.47 0 0 0-13.728 6.056l-14.541-35.105a7.497 7.497 0 0 0-9.799-4.059 7.499 7.499 0 0 0-4.059 9.799l17.885 43.177c-3.054 7.611-3.262 16.372.116 24.529a32.404 32.404 0 0 0 17.274 17.454l24.489 59.121 11.486 27.729a7.5 7.5 0 1 0 13.858-5.74l-8.897-21.479c6.056-4.076 10.792-9.836 13.649-16.735zM210.443 66.899c1.103-1.225 2.721-1.899 4.558-1.899h40c1.837 0 3.455.675 4.558 1.899 1.103 1.226 1.604 2.906 1.411 4.732L258.592 94.2l-5.88 55.797H217.29l-5.875-55.75-2.383-22.617c-.193-1.824.309-3.505 1.411-4.731zm-7.562 89.492l-28.235 68.165-.024.057-40.64 98.113a32.536 32.536 0 0 0-13.729-6.056l35.708-86.208.043-.104 43.582-105.217 3.295 31.25zM86.377 415.678a22.353 22.353 0 0 1 0-17.221l9.551-23.059a32.452 32.452 0 0 0 13.988 5.428l-17.793 42.955a22.391 22.391 0 0 1-5.746-8.103zm44.145-60.352a17.458 17.458 0 0 1-10.949 10.015 6.3 6.3 0 0 0-.433.122 17.397 17.397 0 0 1-11.483-.665c-8.915-3.693-13.163-13.95-9.472-22.865a17.462 17.462 0 0 1 16.178-10.811c2.293 0 4.543.451 6.688 1.339 8.915 3.693 13.164 13.95 9.471 22.865zm111.979-135.327v-12.5c0-4.143-3.357-7.5-7.5-7.5s-7.5 3.357-7.5 7.5v12.5h-34.733l22.782-55.001h38.901l22.782 55.001h-34.732zm106.45 112.462a17.403 17.403 0 0 1 6.688-1.339 17.462 17.462 0 0 1 16.178 10.811c1.789 4.318 1.789 9.075 0 13.394s-5.152 7.683-9.472 9.472a17.397 17.397 0 0 1-11.48.666 7.538 7.538 0 0 0-.439-.124 17.456 17.456 0 0 1-10.947-10.014c-3.691-8.916.557-19.173 9.472-22.866zm34.674 83.217a22.397 22.397 0 0 1-5.747 8.104l-17.793-42.955a32.455 32.455 0 0 0 7.999-2.171 32.807 32.807 0 0 0 5.991-3.252l9.549 23.054a22.346 22.346 0 0 1 .001 17.22z"/></symbol><symbol viewBox="0 0 631.61 72.679" id="decor-bottom" xmlns="http://www.w3.org/2000/svg"><path d="M629.218 6.843a1.193 1.193 0 0 0 .228-.625c.075-1.3-1.222-2.2-2.072-3.014a13.059 13.059 0 0 0-3.363-2.456c-.866-.406-2.585-1.018-3.4-.2a2.4 2.4 0 0 0-.428 2.215c.409 1.742 2.557 2.89 4.016 3.59.906.436 2.565 1.205 3.732.938a1.932 1.932 0 0 0 .408.038 1.206 1.206 0 0 0 .418-.095 14.292 14.292 0 0 1-.131 14.688c-4.961 8.778-13.326 11.225-22.891 10.633-20.091-1.245-38.48-15.108-55.786-24.077C533.707.058 515.242-1.5 497.3 1.242q-8.01 1.225-15.943 2.938-3.744.776-7.455 1.747a82.112 82.112 0 0 0-3.447.936c-5.969 1.7-11.867 3.737-17.715 5.954-17.184-8.138-39.138-2.288-55.907 4.948-13.6 5.865-26.559 13.635-40.669 18.223-9.943 3.233-23.187 4.633-31.768-2.671-6.67-5.68-5.01-14.53.156-20.534a14.9 14.9 0 0 1 12.733-5.2 9.671 9.671 0 0 1 1.053.141 12.873 12.873 0 0 1 4.314 2.554 8.045 8.045 0 0 1 1.03 7.055c-1.8 2.921-5.5 4.593-7.095.15a.144.144 0 0 0-.277.076c1.407 6.349 7.244 3.751 9.382-.763 1.591-3.358.483-6.179-1.784-8.287a9.113 9.113 0 0 0-5.052-3.009 17.279 17.279 0 0 0-6.684-1.2c-7.642.4-15.193 7.812-16.568 15.358-1.51-7.952-7.044-14.885-16.16-15.358a16.9 16.9 0 0 0-6.131 1 9.855 9.855 0 0 0-4.613 2.05 7.685 7.685 0 0 0-1.6 1.774 6.537 6.537 0 0 0-1.176 7.674c2.138 4.514 7.974 7.111 9.383.763a.145.145 0 0 0-.279-.076c-1.7 4.749-5.462 2.465-7.21-.519a7.735 7.735 0 0 1 .726-6 16.409 16.409 0 0 1 3.885-2.811c.255-.142.514-.247.77-.366a10.631 10.631 0 0 1 1.133-.209c5.41-.692 10 2.028 13.408 5.984 5.808 6.747 5.04 16-2.309 21.124-9.526 6.642-23.188 3.725-33.231.192-13.577-4.775-26.145-12.378-39.4-17.959-16.809-7.074-37.621-11.725-54.2-3.772a307.956 307.956 0 0 0-12.751-4.545 71.4 71.4 0 0 0-8.811-2.847 180.616 180.616 0 0 0-21.886-4.391C117.454-1.462 99.051-.19 82.877 7.862 64.95 16.786 47.664 29.813 27.3 32.421c-9.938 1.273-17.948-1.337-23.747-9.611A13.938 13.938 0 0 1 2.9 7.272a1.326 1.326 0 0 0 .238.054 1.929 1.929 0 0 0 .408-.038c1.167.267 2.825-.5 3.733-.938 1.457-.7 3.605-1.848 4.016-3.59a2.4 2.4 0 0 0-.429-2.215c-.815-.814-2.534-.2-3.4.2A13.065 13.065 0 0 0 4.1 3.2c-.851.811-2.147 1.713-2.073 3.014a1.184 1.184 0 0 0 .306.74C-2.25 14.177.116 24.973 7.686 30.767c15.4 11.787 38.8.884 53.513-6.737 9.117-4.725 17.847-10.182 27.09-14.662A58.108 58.108 0 0 1 104.146 4.5c-.177.056-.36.1-.537.161-9.553 3.2-19.342 12.061-15.76 23.136 2.308 7.138 10.1 10.121 17.424 10a1.25 1.25 0 0 0 1.14.147 15.928 15.928 0 0 0 3.51 0A10.5 10.5 0 0 0 115 36.28a1.2 1.2 0 0 0 .241-1.87c-3.33-2.651-6.715-.2-9.959 1.292a1.015 1.015 0 0 0-.615 1.207c-7.433-.945-14.67-5.718-14.6-13.554.1-10.708 13.9-15.486 22.272-17.029 20.945-3.857 42.37 2.042 62.039 9.185a38.981 38.981 0 0 0-7.107 5.921c-5.338 5.623-8.336 13.417-6.586 21.108 1.782 7.833 9.782 14.053 17.5 15.014 7.853.977 16.344-4.19 18.712-11.7 1.246-3.947-.572-7.83-3.33-10.6-2.673-2.682-5.819-2.435-8.779-.922a12.618 12.618 0 0 0-2.323 1.106 1.534 1.534 0 0 0-.775 1.352 2.8 2.8 0 0 0 3.605 2.682 8.6 8.6 0 0 0 3.777-2.26 1.786 1.786 0 0 0 .457-1.58c2.846 1.069 4.9 4.366 5.15 7.582.242 3.069-2.2 5.982-4.3 7.872a15.273 15.273 0 0 1-17.922 1.459c-9.383-5.922-10.946-16.621-5.259-25.635A29.638 29.638 0 0 1 178.14 16.9c.418.156.835.311 1.251.469 28.935 10.905 57.027 26.066 87.9 30.769 14.937 2.275 34.467 2.254 44.592-10.994a20.582 20.582 0 0 0 3.871-9.438 23.462 23.462 0 0 0 4.408 10.011c10.235 13.393 30.9 12.44 45.657 10.192 30.614-4.662 58.847-20.078 87.535-30.965.255.14.514.263.767.408 8.311 4.782 15.7 14.191 13.4 24.247-1.824 7.994-10.344 14.136-18.378 13.02a15.7 15.7 0 0 1-10.694-6.68c-2.788-4.126-.685-10.833 3.519-12.4a1.78 1.78 0 0 0 .43 1.678 8.6 8.6 0 0 0 3.776 2.26 2.8 2.8 0 0 0 3.6-2.682 1.528 1.528 0 0 0-.774-1.352 15.485 15.485 0 0 0-1.892-.947c-7.873-4.087-14.54 4.578-12.059 12.442 2.382 7.546 12.506 11.935 19.877 10.424 8.046-1.648 15.047-8.565 16.365-16.7 1.286-7.934-3.082-15.479-8.544-20.847a36.848 36.848 0 0 0-5.362-4.367c19.75-7.2 40.773-12.583 61.885-9.117 9.129 1.5 21.192 6.341 22.272 17.029.818 7.94-7.062 12.54-14.705 13.46a1.159 1.159 0 0 0 .01-.231.052.052 0 0 0 0-.1c-.008 0-.007.01-.014.014a1.018 1.018 0 0 0-.632-.8c-3.245-1.492-6.631-3.943-9.96-1.292a1.2 1.2 0 0 0 .24 1.87 10.5 10.5 0 0 0 5.071 1.654 15.924 15.924 0 0 0 3.51 0 1.259 1.259 0 0 0 .878-.006 19.009 19.009 0 0 0 13.114-4.129c6.539-5.483 6.939-13.658 1.89-20.512a25.355 25.355 0 0 0-10.27-8.009 79.881 79.881 0 0 1 9.107 2.582c10.254 3.586 19.692 10.341 29.242 15.433 14.787 7.886 38.055 19.043 54.049 8.131 8.214-5.602 11.006-17.071 6.146-24.582zM622.8 3.214a11.062 11.062 0 0 1 1.484 1.019 7.993 7.993 0 0 1-1.484-1.019zm-614.12 0a8.039 8.039 0 0 1-1.486 1.019A11.05 11.05 0 0 1 8.68 3.214zm299.655 33.011c-13.168 15.675-41.535 9.049-57.982 4.463-23.286-6.49-45.121-17.107-67.6-25.928a44 44 0 0 1 14.26-2.906c15.472-.536 30.566 5.746 44.324 12.112 18.571 8.595 44.014 25.557 64.755 13.662a16.7 16.7 0 0 0 2.563-1.815c-.107.137-.21.28-.32.412zM412 29.754c-22.825 9.251-51.361 21.167-76.373 14a25.119 25.119 0 0 1-12.051-7.4c4.132 3.135 9.631 4.538 14.673 4.99 12.21 1.1 23.991-4.1 34.777-9.131 13.645-6.359 26.95-13.465 41.5-17.6 11.116-3.158 22.925-4.008 33.652-.027-12.235 4.841-24.25 10.333-36.178 15.168z"/><path d="M342.452 54.323c-3.578-.243-7.086-1.621-10.523-2.558-13.462-3.666-16.1-13.975-16.16-14.163-1.328 8.1-9.677 11.63-16.161 14.163a45.611 45.611 0 0 1-8.968 2.374c-4.165.707-13.651 1.963-13.155 2.133 5.749 1.959 10.519 6.477 16.767 7.025a19.778 19.778 0 0 0 12.5-2.829 6.8 6.8 0 0 0 1.6 4.272c1.67 2.078 3.542 3.866 5.354 5.728q.513.529 1.013 1.064.526.562 1.033 1.145c.341-.4.687-.794 1.037-1.177.332-.362.667-.723 1.006-1.076 1.571-1.644 3.2-3.22 4.818-4.98a7.416 7.416 0 0 0 2.13-4.98 19.984 19.984 0 0 0 10.942 2.973c6.937-.028 12.115-5.035 18.365-7.165.498-.172-7.972-1.703-11.598-1.949z"/></symbol><symbol viewBox="0 0 235.656 16.344" id="divider" xmlns="http://www.w3.org/2000/svg"><g fill-rule="evenodd"><path d="M117.865 16.272a42.923 42.923 0 0 1-2.449-4.248 8.892 8.892 0 0 1-.5-6.7 2.474 2.474 0 0 1 .434.433A13.817 13.817 0 0 1 117.865 0a13.818 13.818 0 0 1 2.519 5.76 2.539 2.539 0 0 1 .432-.433 8.873 8.873 0 0 1-.5 6.7 43.3 43.3 0 0 1-2.451 4.245z"/><path d="M117.793 16.344a182.534 182.534 0 0 1 0-12.6 122.145 122.145 0 0 1 0 12.6z"/><path d="M119.521 8.784a36.993 36.993 0 0 1-1.728 5.472 48.079 48.079 0 0 1 1.728-5.472zm-3.457 0a36.991 36.991 0 0 0 1.729 5.472 36.972 36.972 0 0 0-1.729-5.472zm3.313 7.344a18.141 18.141 0 0 1 1.3-2.664 5.373 5.373 0 0 1 3.1-2.448.65.65 0 0 1-.072.36 8.472 8.472 0 0 1 3.744-.721 8.524 8.524 0 0 1-2.016 3.168c.143.072.215.072.287.145a5.3 5.3 0 0 1-3.385 1.943 20.28 20.28 0 0 1-2.958.217z"/><path d="M119.3 16.128c2.016-1.512 4.1-2.881 6.264-4.248a73.763 73.763 0 0 1-6.264 4.248z"/><path d="M123.625 14.472a17.343 17.343 0 0 1-3.313.936 25.068 25.068 0 0 1 3.313-.936zm-1.152-1.729a25.334 25.334 0 0 0-2.16 2.664 19.265 19.265 0 0 0 2.16-2.664zm-6.12 3.385c-.432-.864-.793-1.872-1.3-2.664a5.536 5.536 0 0 0-3.168-2.448.649.649 0 0 0 .072.36 8.166 8.166 0 0 0-3.672-.721 7.56 7.56 0 0 0 1.943 3.168c-.072.072-.215.072-.287.145a5.456 5.456 0 0 0 3.455 1.943 19.6 19.6 0 0 0 2.957.217z"/><path d="M116.353 16.128c-2.016-1.512-4.105-2.881-6.193-4.248a86.94 86.94 0 0 0 6.193 4.248z"/><path d="M112.105 14.472a15.307 15.307 0 0 0 3.24.936 27.524 27.524 0 0 0-3.24-.936zm1.153-1.729c.719.865 1.439 1.729 2.088 2.664a18.663 18.663 0 0 1-2.088-2.664zM125.641 15.911a8.365 8.365 0 0 0 2.809-3.6c4.967 1.872 11.088 2.664 17.135 3.6z"/><path d="M167.113 15.911c-1.656-1.295-2.52-1.512-3.023-2.808-5.4 2.017-12.025 2.3-18.506 2.808zm0 0c1.656-1.295 2.519-1.512 3.023-2.808 5.4 2.017 59.041 2.3 65.52 2.808zm.073-1.727a4.055 4.055 0 0 1-2.018-1.728 18.024 18.024 0 0 1 1.945-4.1 11.273 11.273 0 0 1 2.088 4.032 5.5 5.5 0 0 1-2.015 1.796zM110.018 15.911a8.365 8.365 0 0 1-2.809-3.6c-4.969 1.872-11.088 2.664-17.137 3.6zm-41.473 0c1.656-1.295 2.52-1.512 3.023-2.808 5.4 2.017 12.025 2.3 18.5 2.808zm0 0c-1.656-1.295-2.519-1.512-3.023-2.808C60.121 15.12 6.48 15.407 0 15.911zm-.072-1.727a4.05 4.05 0 0 0 2.016-1.728 17.941 17.941 0 0 0-1.943-4.1 11.274 11.274 0 0 0-2.088 4.032 5.5 5.5 0 0 0 2.015 1.796z"/></g></symbol><symbol viewBox="0 0 60 60" id="file-download" xmlns="http://www.w3.org/2000/svg"><path d="M37 22H12a1 1 0 0 0 0 2h25a1 1 0 0 0 0-2zm-25-6h10a1 1 0 0 0 0-2H12a1 1 0 0 0 0 2zm26 15a1 1 0 0 0-1-1H12a1 1 0 0 0 0 2h25a1 1 0 0 0 1-1zm-8 8a1 1 0 0 0-1-1H12a1 1 0 0 0 0 2h17a1 1 0 0 0 1-1zm-18 7a1 1 0 0 0 0 2h14a1 1 0 0 0 0-2H12z"/><path d="M3 2h29v14h14v17h2V14.586L33.414 0H1v60h31v-2H3V2zm31 1.414L44.586 14H34V3.414z"/><path d="M35 36v24h24V36H35zm22 22H37V38h9v12.586l-4.293-4.293-1.414 1.414L47 54.414l6.707-6.707-1.414-1.414L48 50.586V38h9v20z"/></symbol><symbol viewBox="0 0 51.796 36.402" id="flower" xmlns="http://www.w3.org/2000/svg"><path d="M45.5 6.852s-2.083-1.095.506-3.015 5.593.521 3.628 3.643-8.174 3.806-11.62 3.158c-3.684-.69-7.877 2.278-8.372 5.383 0 0 1.6-5.741 9.3-4.68s14.322-4.267 11.4-8.1-8.281 3.346-4.842 3.611zm-19.469 6.283c-5.076-5.078 0-13.135 0-13.135s5.078 8.057 0 13.135zm.746 1.218s4.739-3.927.676-13.54c0 0 5.472 6.2 3.508 11.231 2.226-3.294 7.731-2.509 7.731-2.509 9.362 1.844 9.616-4.357 9.616-4.357.576 2.866-2.471 6.137-8.976 5s-8.9 2.877-8.9 2.877c.047-.126.1-.248.156-.366.116-.932.577-5.486-1.241-7.546 0 0 1.76 5.821-2.572 9.206zm14.241-.129c4.611 2.411 8.264 4 10.777-.437 0 0-2.119 6.661-10.552 3.858-3.066-1.019-5.325-.637-6.962.263l.223-.05.252-.047.259-.038.27-.031.205-.032.205-.026.2-.017.2-.018.188-.009h.369l.181.011.167.009.167.021.166.026.161.037.15.039.15.044.146.049.145.059.129.062.13.072.123.077.127.08.108.089.112.092.107.1.1.1.092.111.094.119.088.123.084.13.077.136.073.14.069.148.067.154.035.112.034.112.029.11.034.111.016.109.022.109.016.109.016.108v.433l-.017.105-.01.054v.054l-.022.1-.02.109-.036.1-.032.107-.042.1-.023.053-.017.053-.029.053-.023.052-.048.1-.059.1-.029.052-.022.052-.071.1-.067.1-.043.05-.035.051-.071.1-.084.1-.085.1-.048.05-.043.05-.051.074-.043.05-.127.116-.036.028-.018.014-.012.015-.06.058-.13.114-.129.11-.146.108-.139.107-.149.1-.146.1-.162.1-.16.1-.168.1-.167.1-.182.094-.177.091-.186.088-.094.044-.086.043-.2.1-.187.109-.17.122-.154.136-.152.146-.134.162-.118.173-.105.186-.1.215-.04.1-.027.108-.024.1-.009.1-.007.1.011.1.008.091.021.094.03.093L35 27l.1.168.061.087.078.077.1.107.111.092.1.078.113.063.1.049.106.032.1.016h.109l.094-.015.1-.026.1-.047.1-.056.087-.073.1-.088.091-.105.1-.117-.062.128-.033.061-.029.059-.026.025-.02.027-.042.049-.091.094-.112.076-.06.035-.056.032-.069.029-.063.021-.143.041-.149.023-.143.008h-.151l-.149-.012-.161-.03-.154-.042-.162-.053-.161-.066-.168-.077-.155-.087-.148-.094-.136-.1-.135-.114-.119-.117-.117-.127-.1-.137-.114-.16-.084-.16-.072-.168-.044-.169-.04-.17-.017-.178v-.182l.02-.184.019-.17.037-.161.039-.157.059-.155.059-.155.076-.146.081-.149.1-.14.1-.138.111-.139.118-.132.137-.129.139-.125.14-.127.161-.12.174-.117.114-.077.131-.077.14-.08.15-.082.156-.087.17-.087.178-.091.2-.1 1.184-.579.162-.1.155-.114.145-.124.142-.139.124-.153.12-.163.107-.176.105-.191.039-.1.041-.1.035-.1.035-.1.021-.1.028-.1.019-.095.023-.093v-.1l.008-.093v-.157l-.012-.1-.006-.022v-.069l-.015-.092-.011-.09-.06-.2-.037-.093-.037-.086-.1-.169-.11-.156-.068-.073-.073-.072-.075-.067-.074-.059-.087-.059-.091-.057-.093-.054-.093-.045-.125-.042-.124-.048-.132-.043-.135-.032-.145-.032-.147-.025-.15-.021-.154-.013-.164-.011h-.345l-.173.008-.185.016-.187.018-.194.024-.19.031-.256.042-.237.053-.234.055-.226.065-.221.073-.215.08-.21.087-.017.008a9.044 9.044 0 0 0-2.838 3.776l-.006.029-.041.245-.032.256.026-.279.024-.179a1.02 1.02 0 0 0-.026.068 4.355 4.355 0 0 1-1.134 2.307 7.419 7.419 0 0 1-1.49 7.658 6.284 6.284 0 0 0 .634-3.531 9.85 9.85 0 0 1-1.2 2.983c-.838 1.25-1.078 4.241.978 4.63 0 0-3.849.376-1.709-5.71s-.16-7-.16-7 2.716.523 3.208-1.39a1.748 1.748 0 0 0 .035-.842c-.043-.1-.085-.2-.125-.3a1.5 1.5 0 0 0-2.246 0c-.666.823.755 1.234.75.2 0 0 1.533 1.111-.361 1.732a1.066 1.066 0 0 1-1.355-.557l-.432 5.923-.435-5.979a1.077 1.077 0 0 1-1.385.613c-1.894-.621-.361-1.732-.361-1.732-.006 1.035 1.416.624.751-.2s-2.824-.767-2.329 1.144 3.208 1.39 3.208 1.39-2.3.909-.16 7-1.71 5.71-1.71 5.71c2.058-.389 1.815-3.38.98-4.63a9.879 9.879 0 0 1-1.2-2.983 6.278 6.278 0 0 0 .633 3.531 7.421 7.421 0 0 1-1.49-7.658 4.443 4.443 0 0 1-1.124-2.22l-.007.008s-.041-.134-.129-.359l.025.179.025.279-.032-.256-.041-.244v-.029a9.045 9.045 0 0 0-2.838-3.776l-.018-.007-.21-.088-.214-.081-.221-.073-.226-.066-.234-.055-.238-.052-.255-.043-.189-.031-.2-.024-.187-.02-.183-.016-.175-.007h-.344l-.164.011-.155.012-.149.023-.146.024-.147.032-.135.033-.132.043-.123.047-.127.053-.095.043-.094.054-.091.058-.087.059-.073.059-.076.068-.072.07-.068.073-.111.157-.095.168-.038.086-.037.093-.06.2-.012.089-.014.092v.069l-.006.023-.011.095v.186l.009.093.006.1.021.093.019.095.029.1.022.1.034.1.034.1.042.1.039.1.105.19.107.176.122.163.123.154.141.138.145.124.154.114.162.1 1.185.58.2.095.177.091.17.087.158.088.149.082.141.079.129.077.114.077.174.117.161.12.152.124.14.125.136.129.118.132.112.14.095.138.1.14.08.149.077.146.059.155.059.155.039.158.037.16.018.17.021.184v.182l-.018.178-.039.171-.044.168-.073.168-.084.161-.113.16-.1.136-.118.129-.118.115-.136.114-.136.1-.148.094-.154.088-.169.076-.16.065-.163.053-.154.042-.161.03-.148.012h-.152l-.145-.008-.149-.023-.142-.041-.064-.02-.069-.03-.057-.032-.059-.034-.114-.077-.09-.093-.042-.05-.02-.026-.025-.026-.03-.059-.034-.059-.061-.129.1.117.09.105.1.089.088.073.1.056.1.046.1.026.093.015h.11l.1-.016.107-.033.1-.049.111-.062.1-.078.111-.092.1-.106.077-.078.062-.086.1-.169.041-.089.03-.092.021-.094.008-.092.012-.1-.006-.1-.01-.1-.025-.1-.026-.107-.04-.106-.105-.214-.1-.186-.12-.173-.134-.161-.152-.147-.153-.136-.171-.122-.187-.109-.2-.1-.088-.044-.093-.044-.186-.087-.178-.091-.181-.095-.168-.1-.168-.1-.159-.1-.162-.1-.145-.1-.151-.1-.14-.109-.148-.108-.127-.109-.132-.114-.059-.058-.012-.015L13.16 23l-.034-.027-.126-.122-.043-.05-.048-.05-.043-.049-.048-.051-.084-.1-.084-.1-.071-.1-.039-.051-.041-.05-.069-.1-.07-.1-.024-.05-.029-.051-.059-.1-.048-.1-.022-.053-.03-.052-.016-.053-.023-.053-.042-.1-.033-.107-.035-.1-.021-.108-.023-.1v-.055l-.01-.054-.017-.106v-.431l.016-.108.016-.109.022-.11.015-.109.035-.111.028-.11.035-.112.035-.112.066-.153.069-.149.074-.139.076-.137.085-.13.088-.122.093-.12.093-.111.1-.1.107-.1.11-.092.11-.089.126-.081.124-.077.131-.072.129-.062.145-.059.144-.071.15-.044.151-.039.161-.037.165-.026.166-.021.168-.014.18-.01h.182l.186.007.19.008.2.017.2.018.2.026.206.032.27.031.259.039.252.047.222.049c-1.636-.9-3.9-1.281-6.96-.263C2.118 20.251 0 13.591 0 13.591c2.512 4.437 6.164 2.848 10.775.437s9.2 1.276 9.2 1.276-4.06-4.837-10.847-.973-7.866-.357-7.866-.357 1.743 3.851 7.643-.784 11.136.224 11.136.224c2.516 2.842 2.724 5.209 2.364 6.807a3.17 3.17 0 0 1 1.533-.351 1.676 1.676 0 0 1 1.447.7l-.373-5.128S21.361 13 21.767 9.208c0 0-.27 3.927 4.2 5.957 4.469-2.03 4.2-5.957 4.2-5.957.405 3.79-3.25 6.227-3.25 6.227l-.369 5.077a1.686 1.686 0 0 1 1.41-.644 3.265 3.265 0 0 1 1.377.273c-.274-1.589.044-3.85 2.419-6.533 0 0 5.235-4.856 11.136-.224s7.643.785 7.643.785-1.081 4.219-7.867.357-10.846.974-10.846.974 4.592-3.688 9.2-1.276zm-28.164-3.079c7.691-1.062 9.3 4.68 9.3 4.68-.494-3.1-4.688-6.072-8.37-5.381-3.448.646-9.657-.037-11.622-3.159S3.2 1.722 5.786 3.641s.507 3.015.507 3.015c3.44-.265-1.924-7.441-4.841-3.608s3.712 9.158 11.4 8.1zM3.485 4.982c-.576 2.865 2.472 6.136 8.976 5s8.9 2.878 8.9 2.878-.812-5.416 1.218-7.717c0 0-1.76 5.821 2.572 9.206 0 0-4.738-3.927-.676-13.54 0 0-5.49 6.223-3.5 11.255C18.853 8.517 13.1 9.338 13.1 9.338c-9.361 1.844-9.615-4.356-9.615-4.356z" fill-rule="evenodd"/></symbol><symbol viewBox="0 0 511.996 511.996" id="hammer" xmlns="http://www.w3.org/2000/svg"><path d="M246.239 331.417a7.615 7.615 0 0 0-10.771 0l-15.404 15.404-29.369-29.369 15.409-15.409c2.975-2.975 2.975-7.797 0-10.771s-7.798-2.975-10.771 0l-16.03 16.03a13.93 13.93 0 0 0-5.846-1.29 13.905 13.905 0 0 0-9.896 4.1l-89.334 89.334a7.615 7.615 0 0 0 0 10.771 7.615 7.615 0 0 0 10.771 0l88.458-88.458 42.297 42.297L92.789 487.021c-5.732 5.732-13.37 8.821-21.505 8.74-8.131-.095-15.695-3.384-21.298-9.257-11.108-11.651-10.66-30.616 1-42.276l14.621-14.621a7.615 7.615 0 0 0 0-10.771 7.616 7.616 0 0 0-10.771 0l-14.621 14.621c-17.46 17.461-18.023 45.974-1.252 63.562 8.46 8.868 19.874 13.831 32.142 13.975l.55.003c12.066 0 23.379-4.677 31.905-13.205l123.839-123.839c4.248-4.248 5.173-10.565 2.806-15.732l16.032-16.032a7.616 7.616 0 0 0 .002-10.772zm238.47-129.127a7.617 7.617 0 0 0-13.252 7.513c13.771 24.289 15.84 52.236 6.224 77.194-17.578-31.491-45.834-61.628-68.148-77.389l33.275-33.243 13.402 13.402a7.594 7.594 0 0 0 5.387 2.232 7.616 7.616 0 0 0 5.387-13.002l-13.398-13.398 8.946-8.938a7.616 7.616 0 0 0 .005-10.778l-70.045-70.045a7.616 7.616 0 0 0-10.714-.057 10.464 10.464 0 0 1-2.66 1.897c-6.193 3.116-15.462.603-22.036-5.971-6.536-6.535-9.038-15.48-6.064-21.797a10.284 10.284 0 0 1 1.995-2.886 7.616 7.616 0 0 0-.053-10.718L318.884 2.231a7.615 7.615 0 0 0-10.771 0l-74.29 74.289a7.615 7.615 0 0 0 0 10.771l34.075 34.075a7.617 7.617 0 0 0 10.688.083 10.51 10.51 0 0 1 2.761-1.926c6.181-3.015 15.392-.482 21.897 6.022 6.555 6.554 9.071 15.808 5.985 22.005a10.606 10.606 0 0 1-1.883 2.661 7.617 7.617 0 0 0 .084 10.687l9.132 9.132-65.375 65.384a7.616 7.616 0 0 0 5.387 13.002c1.95 0 3.899-.743 5.387-2.231l65.374-65.383 29.373 29.373-65.384 65.384a7.615 7.615 0 0 0 0 10.771 7.59 7.59 0 0 0 5.386 2.231 7.59 7.59 0 0 0 5.386-2.231l65.384-65.384 9.961 9.961a7.618 7.618 0 0 0 10.772 0l10.371-10.361c24.057 16.096 57.176 52.756 72.26 86.742a7.618 7.618 0 0 0 13.529.768c19.213-32.71 19.339-72.249.336-105.766zm-211.425-97.08l-23.303-23.304 63.517-63.517 23.303 23.303-63.517 63.518zm40.732 9.563c-5.326-5.324-11.652-8.914-18.126-10.627l39.805-39.806c1.711 6.492 5.3 12.827 10.614 18.14 5.816 5.816 12.977 9.575 20.205 11.033l-41.472 41.472c-1.457-7.235-5.215-14.4-11.026-20.212zm68.809 99.978l-58.003-58.003 63.518-63.517 58.033 58.033-63.548 63.487z"/><path d="M459.75 432.974l-12.227-12.222a7.615 7.615 0 0 0-10.771 0 7.615 7.615 0 0 0 0 10.771l12.227 12.227c5.862 5.862 9.09 13.66 9.09 21.961 0 8.299-3.229 16.098-9.09 21.96-5.866 5.866-13.666 9.096-21.961 9.096-8.295 0-16.095-3.231-21.961-9.096l-71.886-71.885a25.671 25.671 0 0 0 2.979-12.062c0-6.894-2.685-13.376-7.561-18.251-4.875-4.876-11.357-7.561-18.251-7.561-4.274 0-8.39 1.032-12.062 2.978l-5.458-5.458 43.921-43.921 5.465 5.465c-5.14 9.747-3.614 22.116 4.575 30.306 4.876 4.876 11.357 7.561 18.252 7.561 4.274 0 8.39-1.032 12.062-2.978l40.358 40.358a7.615 7.615 0 0 0 10.771 0 7.615 7.615 0 0 0 0-10.771l-44.94-44.94a7.614 7.614 0 0 0-10.772 0c-1.999 1.999-4.654 3.099-7.48 3.099s-5.481-1.101-7.48-3.099c-4.124-4.124-4.124-10.835 0-14.959a7.616 7.616 0 0 0 0-10.771l-15.426-15.426a7.614 7.614 0 0 0-10.772 0l-.894.894-15.657-15.657a7.614 7.614 0 0 0-10.772 0l-3.477 3.477L110.47 113.984l-4.19-29.709a7.615 7.615 0 0 0-4.144-5.753l-51.95-25.904a7.617 7.617 0 0 0-8.785 1.431L15.355 80.094a7.617 7.617 0 0 0-1.431 8.785l25.905 51.951a7.622 7.622 0 0 0 5.753 4.144l29.709 4.19 21.559 21.559a7.615 7.615 0 0 0 10.771 0 7.615 7.615 0 0 0 0-10.771l-23.358-23.358a7.611 7.611 0 0 0-4.322-2.156l-28.265-3.987-21.67-43.461 18.292-18.292 43.458 21.67 3.987 28.266a7.614 7.614 0 0 0 2.156 4.322l191.882 191.882-13.636 13.636L122.852 175.18a7.615 7.615 0 0 0-10.771 0 7.615 7.615 0 0 0 0 10.771l153.292 153.292-3.477 3.477a7.614 7.614 0 0 0 0 10.772l15.658 15.657-.893.894a7.615 7.615 0 0 0 0 10.771l15.426 15.426a7.615 7.615 0 0 0 10.771 0c1.999-1.999 4.654-3.1 7.48-3.1s5.481 1.101 7.48 3.1c1.999 1.999 3.099 4.654 3.099 7.48s-1.1 5.481-3.099 7.48a7.614 7.614 0 0 0 0 10.772l76.469 76.468c8.743 8.743 20.367 13.558 32.732 13.558s23.989-4.815 32.732-13.558c8.739-8.739 13.552-20.363 13.552-32.732s-4.814-23.995-13.553-32.734zm-171.426-74.595l-10.271-10.271 27.885-27.885 3.477-3.477 10.272 10.272-31.363 31.361z"/></symbol><symbol viewBox="0 0 467.6 467.6" id="legal-paper" xmlns="http://www.w3.org/2000/svg"><path d="M165.41 100.32h138.62a5.3 5.3 0 0 0 0-10.58H165.41a5.3 5.3 0 1 0 0 10.58zm13.94 196.14v-.04a45.38 45.38 0 0 0-32.18 13.38 45.52 45.52 0 0 0-13.325 32.195c.008 25.14 20.395 45.513 45.535 45.505 25.14-.008 45.513-20.395 45.505-45.535s-20.395-45.513-45.535-45.505zm24.672 70.233c-13.652 13.637-35.775 13.625-49.413-.027-13.637-13.652-13.625-35.775.027-49.413 13.653-13.637 35.775-13.625 49.413.027v-.04a34.818 34.818 0 0 1 10.22 24.74 34.933 34.933 0 0 1-10.247 24.713zM339.57 158.44H129.85a5.3 5.3 0 0 0 0 10.58h209.72a5.3 5.3 0 0 0 0-10.58z"/><path d="M391.01 59.66l-.16-.4-.1-.2v-.1l-.14-.18-58-58-.34-.3-.22-.12h-.14l-.24-.1h-.24a5.206 5.206 0 0 0-1.24-.26H95.61v.02C84.953.053 76.323 8.684 76.29 19.34v355.32c.033 10.656 8.664 19.287 19.32 19.32h41.5a21.174 21.174 0 0 0 5.06 5.82v62.1a5.077 5.077 0 0 0 .92 3.76l.009.011a5.28 5.28 0 0 0 7.431.729l28.34-23.26 27.86 23.12a5.241 5.241 0 0 0 3.44 1.3l.101-.001a5.14 5.14 0 0 0 5.019-5.259v-61.46a24.004 24.004 0 0 0 6.3-6.78h150.38a19.283 19.283 0 0 0 13.66-5.68 19.278 19.278 0 0 0 5.68-13.64V61.18a5.226 5.226 0 0 0-.3-1.52zm-55.94-41.48l40 40-31.28-.02a8.7 8.7 0 0 1-6.16-2.56 8.7 8.7 0 0 1-2.56-6.16V18.18zm-130.1 432.98l-22.82-18.9a5.281 5.281 0 0 0-6.7 0l-23.04 18.88v-46.72s6.68.86 10.42-1.14a21.478 21.478 0 0 0 16.44 7.72 22.659 22.659 0 0 0 16.42-7.72 21.447 21.447 0 0 0 6 1.28 19.11 19.11 0 0 0 3.28 0v46.6zm22.78-91.54a11.4 11.4 0 0 1 .96 12.4 10.82 10.82 0 0 1-10.32 5.36 5.3 5.3 0 0 0-5.72 4.82 12.823 12.823 0 0 1-1.18 6.86 10.782 10.782 0 0 1-10.32 5.78 11.435 11.435 0 0 1-3.54-.84h-3.3a4.521 4.521 0 0 0-3.24-.62h-.88l-.32.18-.18.18-.16.2-.16.22h-.36a10.82 10.82 0 0 1-5.214 5.214c-5.412 2.533-11.853.198-14.386-5.214a5.3 5.3 0 0 0-7.02-2.56 10.878 10.878 0 0 1-7.866 2.444c-5.986-.522-10.416-5.798-9.894-11.784a5.3 5.3 0 0 0-5.8-5.72 10.821 10.821 0 0 1-9.74-16.98 5.28 5.28 0 0 0-2-7.8 10.839 10.839 0 0 1-5.198-5.198c-2.547-5.418-.22-11.875 5.198-14.422a5.28 5.28 0 0 0 2-7.9 10.822 10.822 0 0 1-1.843-7.046c.521-5.953 5.77-10.356 11.723-9.834a5.3 5.3 0 0 0 5.72-5.8 10.861 10.861 0 0 1 5.42-10.3 10.84 10.84 0 0 1 11.62.52 5.28 5.28 0 0 0 7.8-2 10.7 10.7 0 0 1 9.8-6.24v-.04a10.68 10.68 0 0 1 8.54 7.1 5.3 5.3 0 0 0 7.02 2.56 11.36 11.36 0 0 1 12.4-.98 10.82 10.82 0 0 1 5.36 10.32 5.3 5.3 0 0 0 4.82 5.72 12.813 12.813 0 0 1 6.86 1.18c.416.217.818.461 1.203.731 4.895 3.428 6.085 10.174 2.657 15.069a5.28 5.28 0 0 0 1.3 7.34 12.776 12.776 0 0 1 5.36 4.46c.23.367.438.748.623 1.14 2.562 5.435.232 11.918-5.203 14.48a5.28 5.28 0 0 0-2.54 7zm154.8 15.18a8.7 8.7 0 0 1-2.56 6.16 8.721 8.721 0 0 1-6.16 2.58H232.61v-.06a21.38 21.38 0 0 0 8.1-25.1 21.333 21.333 0 0 0 2.843-2.843c7.504-9.074 6.231-22.513-2.843-30.017.459-1.245.802-2.53 1.023-3.839 1.966-11.643-5.879-22.675-17.523-24.641a21.432 21.432 0 0 0-1.006-3.751c-4.083-11.08-16.374-16.752-27.454-12.669a21.347 21.347 0 0 0-2.812-2.812c-9.074-7.521-22.527-6.262-30.048 2.812a21.318 21.318 0 0 0-18 1.54 21.259 21.259 0 0 0-10.38 14.86 21.358 21.358 0 0 0-3.761 1.012c-11.075 4.095-16.734 16.393-12.639 27.468a21.333 21.333 0 0 0-2.843 2.843c-7.504 9.074-6.231 22.513 2.843 30.017a21.4 21.4 0 0 0 8 25.12h-30.5a8.78 8.78 0 0 1-8.74-8.74V19.34a8.78 8.78 0 0 1 8.74-8.74h228.8v38.9a19.278 19.278 0 0 0 5.68 13.64 19.28 19.28 0 0 0 13.62 5.66h38.84v306z"/><path d="M339.59 276.04H232.83a5.3 5.3 0 1 0 .001 10.58h106.76a5.299 5.299 0 0 0-.001-10.58zm4.944-17.905a5.3 5.3 0 0 0-4.964-5.616H129.85a5.3 5.3 0 1 0 .001 10.58h209.72a5.297 5.297 0 0 0 4.963-4.964zM165.41 113.88a5.3 5.3 0 0 0 0 10.58h138.62a5.3 5.3 0 0 0 0-10.58H165.41zm-35.56 125.7h209.72a5.3 5.3 0 0 0 0-10.58H129.85a5.3 5.3 0 1 0 0 10.58zm0-34.1a5.3 5.3 0 0 0 0 10.58h209.72a5.3 5.3 0 0 0 0-10.58H129.85zm209.72-23.52H129.85a5.3 5.3 0 1 0-.001 10.58h209.72a5.3 5.3 0 0 0 .001-10.58z"/></symbol><symbol viewBox="0 0 512 512" id="light-bulb" xmlns="http://www.w3.org/2000/svg"><path d="M338.6 136.1c-23.6-22.7-54.6-34.4-87.4-33.2-62.9 2.5-114.2 55.7-114.4 118.7-.1 27.9 9.7 55.1 27.6 76.5 25.8 31 40 70.1 40 110.2 0 0-2.7 18.4 10.4 18.4h82.4c13.4 0 10.4-18.4 10.4-18.4 0-39.2 14.4-78 41.7-112.2 16.9-21.3 25.9-46.9 25.9-74.1 0-32.7-13-63.3-36.6-85.9zm-5.6 147c-29.7 37.2-45.6 79.6-46.2 122.8h-61.6c-.6-44.1-16.4-87-44.8-121.1-14.7-17.7-22.8-40.1-22.7-63.1.2-52 42.5-95.9 94.4-98 27.1-1 52.7 8.7 72.1 27.4 19.5 18.7 30.2 43.9 30.2 70.9-.1 22.5-7.4 43.6-21.4 61.1zm60.2-215.3c-4.1-4.1-10.7-4.1-14.7 0l-25.4 25.4c-4.1 4.1-4.1 10.7 0 14.7s10.7 4.1 14.7 0l25.4-25.4c4.1-4 4.1-10.6 0-14.7zm-95.6 373.1h-83.2c-5.8 0-10.4 4.7-10.4 10.4 0 5.8 4.7 10.4 10.4 10.4h83.2c5.8 0 10.4-4.7 10.4-10.4s-4.7-10.4-10.4-10.4zm-15.7 39.2h-51.7c-5.8 0-10.4 4.7-10.4 10.4 0 5.8 4.7 10.4 10.4 10.4h51.7c5.8 0 10.4-4.7 10.4-10.4s-4.7-10.4-10.4-10.4zM256 67.7c5.8 0 10.4-4.7 10.4-10.4V21.4c0-5.8-4.7-10.4-10.4-10.4s-10.4 4.7-10.4 10.4v35.9c0 5.8 4.6 10.4 10.4 10.4zM158.9 108c4.1-4.1 4.1-10.7 0-14.7l-25.4-25.4c-4.1-4.1-10.7-4.1-14.7 0s-4.1 10.7 0 14.7l25.4 25.4c4.1 4 10.7 4 14.7 0zm280.7 86.6h-35.9c-5.8 0-10.4 4.7-10.4 10.4s4.7 10.4 10.4 10.4h35.9c5.8 0 10.4-4.7 10.4-10.4s-4.7-10.4-10.4-10.4zm-331.3 0H72.4c-5.8 0-10.4 4.7-10.4 10.4s4.7 10.4 10.4 10.4h35.9c5.8 0 10.4-4.7 10.4-10.4s-4.6-10.4-10.4-10.4z"/></symbol><symbol viewBox="0 0 485.656 485.656" id="settings" xmlns="http://www.w3.org/2000/svg"><path d="M334.512 312h-200a8 8 0 0 0-5.656 2.344l-96 96 11.312 11.312L137.824 328h187.888c-1.664 9.496-6.888 24-23.2 24h-88v16h88c31.64 0 40-31.4 40-48a8 8 0 0 0-8-8z"/><path d="M436.168 258.344a8 8 0 0 0-11.312 0l-72 72 11.312 11.312 65.712-65.712c10.828 14.37 8.629 34.68-5.024 46.4L331.2 416H166.512a8 8 0 0 0-5.656 2.344l-56 56 11.312 11.312L169.824 432h164.688a8 8 0 0 0 5.656-2.344l96-96c29.792-29.792 13.024-62.288 0-75.312zM390.512 112H361.76a111.297 111.297 0 0 0-8.792-21.192l20.344-20.344a8 8 0 0 0 0-11.312L339.36 25.208a8 8 0 0 0-11.312 0l-20.344 20.344a110.95 110.95 0 0 0-21.192-8.8V8a8 8 0 0 0-8-8h-48a8 8 0 0 0-8 8v28.752a110.95 110.95 0 0 0-21.192 8.8l-20.344-20.344a8 8 0 0 0-11.312 0l-33.952 33.944a8 8 0 0 0 0 11.312l20.352 20.344a111.392 111.392 0 0 0-8.8 21.192h-28.752a8 8 0 0 0-8 8v48a8 8 0 0 0 8 8h28.752a111.297 111.297 0 0 0 8.792 21.192l-20.344 20.344a8 8 0 0 0 0 11.312l33.952 33.952a8.232 8.232 0 0 0 11.312 0l20.344-20.352a111.392 111.392 0 0 0 21.192 8.8V280a8 8 0 0 0 8 8h48a8 8 0 0 0 8-8v-28.752a111.454 111.454 0 0 0 21.192-8.792l20.344 20.344a8 8 0 0 0 11.312 0l33.944-33.952a8 8 0 0 0 0-11.312l-20.344-20.344a111.392 111.392 0 0 0 8.8-21.192h28.752a8 8 0 0 0 8-8v-48a8 8 0 0 0-8-8zm-7.999 48h-26.888a8 8 0 0 0-7.784 6.16 95.729 95.729 0 0 1-11.68 28.144 8.001 8.001 0 0 0 1.152 9.864l19.032 19.024-22.64 22.64-19.024-19.04a8.001 8.001 0 0 0-9.864-1.152 95.436 95.436 0 0 1-28.144 11.688 8 8 0 0 0-6.16 7.784V272h-32v-26.88a8 8 0 0 0-6.16-7.784 95.436 95.436 0 0 1-28.144-11.688 8.001 8.001 0 0 0-9.864 1.152l-19.024 19.04-22.64-22.64 19.032-19.04a8.001 8.001 0 0 0 1.152-9.864 95.74 95.74 0 0 1-11.68-28.144 8 8 0 0 0-7.784-6.16h-26.888v-32H153.4a8 8 0 0 0 7.784-6.16 95.74 95.74 0 0 1 11.68-28.144 8.001 8.001 0 0 0-1.152-9.864L152.68 64.8l22.632-22.624 19.032 19.032a8.001 8.001 0 0 0 9.864 1.152 95.198 95.198 0 0 1 28.144-11.68 8 8 0 0 0 6.16-7.784V16h32v26.896a8 8 0 0 0 6.168 7.784 95.198 95.198 0 0 1 28.144 11.68 8.001 8.001 0 0 0 9.864-1.152l19.024-19.032L356.345 64.8l-19.032 19.032a8.001 8.001 0 0 0-1.152 9.864 95.74 95.74 0 0 1 11.68 28.144 8 8 0 0 0 7.784 6.16h26.888v32z"/><path d="M254.512 96c-26.51 0-48 21.49-48 48s21.491 48 48 48c26.499-.026 47.974-21.501 48-48 0-26.51-21.49-48-48-48zm0 80c-17.673 0-32-14.327-32-32 0-17.673 14.327-32 32-32 17.673 0 32 14.327 32 32 0 17.673-14.327 32-32 32z"/></symbol><symbol viewBox="0 0 491.9 491.9" id="user" xmlns="http://www.w3.org/2000/svg"><path d="M418.45 315c-44.9-36.9-93.5-62-106.1-68.3v-67.4c9.5-7.5 15.1-18.9 15.1-31.1V73.4c0-40.5-32.9-73.4-73.4-73.4h-16.1c-40.5 0-73.4 32.9-73.4 73.4v74.8c0 12.2 5.6 23.6 15.1 31.1v67.4c-12.7 6.3-61.3 31.4-106.2 68.3-9.8 8-15.4 19.9-15.4 32.6v51.3c0 3.3 2.7 6 6 6s6-2.7 6-6v-51.3c0-9.1 4-17.6 11-23.4 45.9-37.7 95.8-62.9 105.3-67.5 3.2-1.6 5.2-4.8 5.2-8.4v-72.1c0-2-1-3.9-2.7-5-7.8-5.2-12.4-13.8-12.4-23.1V73.4c0-33.8 27.5-61.4 61.4-61.4h16.1c33.8 0 61.4 27.5 61.4 61.4v74.8c0 9.3-4.6 17.9-12.4 23.1-1.7 1.1-2.7 3-2.7 5v72.1c0 3.6 2 6.8 5.2 8.4 9.5 4.7 59.3 29.8 105.3 67.5 7 5.7 11 14.3 11 23.4V399c.1 3.2 2.8 5.9 6.1 5.9s6-2.7 6-6v-51.3c0-12.7-5.6-24.6-15.4-32.6z"/><path d="M276.75 269.1c0-3.3-2.7-6-6-6s-6 2.7-6 6c0 5.6-2.4 10.5-6.3 14-.6.3-1.2.8-1.6 1.3-3.1 2.2-6.8 3.5-10.9 3.5-10.4 0-18.8-8.4-18.8-18.8 0-3.3-2.7-6-6-6s-6 2.7-6 6c0 7.8 2.9 15 7.8 20.4l-7.5 174.8c-.1 1.8.6 3.5 2 4.7l23.8 21.4c1.1 1 2.6 1.5 4 1.5s2.9-.5 4-1.5l24.1-21.8c1.3-1.2 2.1-2.9 2-4.7l-7.9-172.9c5.7-5.5 9.3-13.3 9.3-21.9zM245.15 478l-17.6-16 7.1-164.3c3.5 1.4 7.3 2.2 11.3 2.2 3.4 0 6.7-.6 9.8-1.6l7.4 163.4-18 16.3z"/></symbol><symbol viewBox="0 0 64 64" id="wallet" xmlns="http://www.w3.org/2000/svg"><path d="M58.254 13.034h-4.337L48.489 2.178a.993.993 0 0 0-1.335-.445l-9.789 4.895-7.864-5.453a1 1 0 0 0-1.317.166L18.017 13.034H5.746a5.6 5.6 0 0 0-5.6 5.6V57.4A5.6 5.6 0 0 0 5.747 63h52.508a5.6 5.6 0 0 0 5.6-5.6V18.634a5.6 5.6 0 0 0-5.6-5.599zm-6.561 0H29.002l18.152-9.077 4.539 9.077zM29.1 3.318l6.236 4.324-10.783 5.392h-3.9L29.1 3.318zm29.154 57.693H5.746c-1.99 0-3.61-1.62-3.61-3.61V18.633c0-1.99 1.62-3.61 3.61-3.61h52.508c1.99 0 3.61 1.62 3.61 3.61v7.19H47.9c-5.456 0-9.895 4.448-9.895 9.915v1.76c0 5.466 4.44 9.912 9.895 9.912h13.964v9.99c0 1.991-1.62 3.61-3.61 3.61zm3.61-33.198v17.608H47.9c-4.36 0-7.906-3.554-7.906-7.922v-1.761c0-4.37 3.547-7.925 7.906-7.925h13.964z"/><path d="M43.936 36.323a3.983 3.983 0 0 0 3.979 3.979 3.983 3.983 0 0 0 3.979-3.979 3.983 3.983 0 0 0-3.98-3.978 3.983 3.983 0 0 0-3.978 3.978zm3.979-1.989c1.096 0 1.99.893 1.99 1.99a1.993 1.993 0 0 1-1.99 1.989 1.992 1.992 0 0 1-1.99-1.99c0-1.096.893-1.989 1.99-1.989z"/></symbol></svg>